<?xml version="1.0" encoding="UTF-8" standalone="no"?>
<svg width="2977.23px" height="581.102px" viewBox="0 0 2977.23 581.102"
 xmlns="http://www.w3.org/2000/svg" xmlns:xlink="http://www.w3.org/1999/xlink" version="1.2" baseProfile="tiny">
<title>Untitled score</title>
<desc>Generated by MuseScore 4.1.1</desc>
<path class="" fill="#ffffff" fill-rule="evenodd" d="M0,0 L2977.23,0 L2977.23,581.102 L0,581.102 L0,0 "/>
<polyline class="StaffLines" fill="none" stroke="#000000" stroke-width="2.73" stroke-linejoin="bevel" points="124,173.6 2835.5,173.6"/>
<polyline class="StaffLines" fill="none" stroke="#000000" stroke-width="2.73" stroke-linejoin="bevel" points="124,198.4 2835.5,198.4"/>
<polyline class="StaffLines" fill="none" stroke="#000000" stroke-width="2.73" stroke-linejoin="bevel" points="124,223.2 2835.5,223.2"/>
<polyline class="StaffLines" fill="none" stroke="#000000" stroke-width="2.73" stroke-linejoin="bevel" points="124,248 2835.5,248"/>
<polyline class="StaffLines" fill="none" stroke="#000000" stroke-width="2.73" stroke-linejoin="bevel" points="124,272.8 2835.5,272.8"/>
<path class="Text" d="M372.413,335.269 L362.241,335.878 L362.241,338.238 L364.882,338.238 C366.96,338.3 367.241,338.628 367.241,340.988 L367.241,371.675 C367.194,372.441 367.132,372.769 366.913,373.05 C366.522,373.55 365.476,373.769 363.116,373.816 L362.897,373.816 L362.897,375.8 L376.804,375.8 L376.804,373.816 L376.585,373.816 C372.913,373.706 372.413,373.441 372.413,371.456 L372.413,363.316 C372.413,360.628 372.804,358.144 373.397,356.878 C374.616,354.409 377.038,352.706 379.397,352.706 C380.819,352.706 382.476,353.534 383.241,354.628 C384.132,355.831 384.507,357.488 384.507,360.175 L384.507,371.675 C384.46,372.441 384.397,372.769 384.179,373.05 C383.788,373.55 382.694,373.769 380.335,373.816 L380.116,373.816 L380.116,375.8 L394.022,375.8 L394.022,373.816 L393.804,373.816 C390.179,373.706 389.679,373.441 389.679,371.456 L389.679,360.409 C389.679,356.441 389.507,355.456 388.522,353.581 C387.147,350.894 384.397,349.347 381.101,349.347 C377.522,349.347 374.882,350.941 372.413,354.628 L372.413,335.269 M420.991,363.425 C421.038,355.175 416.366,349.347 409.663,349.347 C402.616,349.347 397.335,355.456 397.335,363.706 C397.335,371.456 402.335,376.628 409.772,376.628 C415.038,376.628 418.726,374.034 420.991,368.816 L419.054,367.769 C416.804,372.003 414.491,373.659 410.804,373.659 C408.007,373.659 405.976,372.503 404.538,370.019 C403.554,368.378 403.116,366.456 403.163,363.425 L420.991,363.425 M403.226,361.066 C403.226,357.206 404.976,351.706 409.601,351.706 C412.897,351.706 415.101,354.628 415.101,359.081 C415.101,360.628 414.601,361.066 412.851,361.066 L403.226,361.066 M439.413,361.784 L445.679,354.456 C447.054,352.863 448.319,352.159 449.804,352.159 L450.288,352.159 L450.288,350.175 L438.913,350.175 L438.913,352.159 L439.96,352.159 C441.601,352.159 442.429,352.534 442.429,353.363 C442.429,353.909 442.038,354.675 441.335,355.566 L437.866,359.738 L433.632,354.347 C433.304,353.909 433.085,353.472 433.085,353.144 C433.085,352.425 433.804,352.159 435.507,352.159 L436.272,352.159 L436.272,350.175 L423.241,350.175 L423.241,352.159 C425.272,352.316 426.038,352.816 427.804,355.128 L434.507,363.534 L428.194,370.909 C426.319,373.003 424.726,373.878 423.241,373.816 L422.913,373.816 L422.913,375.8 L434.507,375.8 L434.507,373.816 L433.694,373.816 C432.429,373.816 432.147,373.769 431.757,373.597 C431.319,373.331 430.991,372.831 430.991,372.331 C430.991,371.956 431.163,371.456 431.429,371.128 L436.054,365.628 L440.226,371.175 C440.616,371.738 440.944,372.441 440.944,372.831 C440.944,373.55 440.116,373.816 438.038,373.816 L437.647,373.816 L437.647,375.8 L451.507,375.8 L451.507,373.816 L451.116,373.816 C449.194,373.816 447.929,373.113 446.335,371.128 L439.413,361.784 M477.272,358.097 C477.272,354.628 476.663,352.863 475.069,351.55 C473.257,350.066 470.554,349.347 467.038,349.347 C460.819,349.347 456.319,352.269 456.319,356.284 C456.319,358.316 457.585,359.628 459.507,359.628 C461.272,359.628 462.476,358.472 462.476,356.831 C462.476,356.113 462.194,355.347 461.647,354.566 C461.319,354.191 461.272,354.081 461.272,353.8 C461.272,352.706 463.46,351.706 466.101,351.706 C467.866,351.706 469.788,352.269 470.663,353.081 C471.71,353.972 472.101,355.284 472.101,357.769 L472.101,359.909 C466.382,360.894 464.569,361.331 461.866,362.378 C457.085,364.144 454.835,366.675 454.835,370.191 C454.835,374.144 457.913,376.628 462.804,376.628 C466.601,376.628 470.007,375.081 472.382,372.284 C473.257,375.081 474.632,376.191 477.21,376.191 C479.694,376.191 482.272,374.597 482.272,373.003 C482.272,372.613 482.054,372.331 481.726,372.331 C481.507,372.331 481.288,372.394 480.897,372.55 C480.132,372.878 479.804,372.941 479.366,372.941 C477.819,372.941 477.272,371.956 477.272,369.144 L477.272,358.097 M472.101,364.8 C472.101,368.097 471.929,368.878 471.007,370.3 C469.632,372.331 467.147,373.706 464.726,373.706 C462.194,373.706 460.382,371.894 460.382,369.425 C460.382,367.113 461.538,365.456 463.96,364.3 C465.663,363.534 467.804,362.988 472.101,362.269 L472.101,364.8 M504.694,367.722 C502.929,371.675 501.069,373.269 498.21,373.269 C493.804,373.269 491.054,369.253 491.054,362.816 C491.054,356.113 493.757,351.706 497.819,351.706 C499.476,351.706 500.897,352.488 500.897,353.363 C500.897,353.534 500.851,353.691 500.569,354.019 C499.694,355.066 499.476,355.613 499.476,356.55 C499.476,358.363 500.851,359.628 502.772,359.628 C504.757,359.628 506.132,358.097 506.132,355.894 C506.132,352.159 502.444,349.347 497.554,349.347 C490.397,349.347 485.288,355.175 485.288,363.425 C485.288,371.238 489.96,376.628 496.772,376.628 C501.663,376.628 504.476,374.363 506.835,368.534 L504.694,367.722 M517.413,335.269 L507.241,335.878 L507.241,338.238 L509.882,338.238 C511.96,338.3 512.241,338.628 512.241,340.988 L512.241,371.675 C512.194,372.441 512.132,372.769 511.913,373.05 C511.522,373.55 510.476,373.769 508.116,373.816 L507.897,373.816 L507.897,375.8 L521.804,375.8 L521.804,373.816 L521.585,373.816 C517.913,373.706 517.413,373.441 517.413,371.456 L517.413,363.316 C517.413,360.628 517.804,358.144 518.397,356.878 C519.616,354.409 522.038,352.706 524.397,352.706 C525.819,352.706 527.476,353.534 528.241,354.628 C529.132,355.831 529.507,357.488 529.507,360.175 L529.507,371.675 C529.46,372.441 529.397,372.769 529.179,373.05 C528.788,373.55 527.694,373.769 525.335,373.816 L525.116,373.816 L525.116,375.8 L539.022,375.8 L539.022,373.816 L538.804,373.816 C535.179,373.706 534.679,373.441 534.679,371.456 L534.679,360.409 C534.679,356.441 534.507,355.456 533.522,353.581 C532.147,350.894 529.397,349.347 526.101,349.347 C522.522,349.347 519.882,350.941 517.413,354.628 L517.413,335.269 M554.272,349.347 C547.507,349.347 542.288,355.347 542.288,363.034 C542.288,370.581 547.569,376.628 554.163,376.628 C560.757,376.628 566.038,370.581 566.038,362.988 C566.038,355.456 560.757,349.347 554.272,349.347 M554.272,351.706 C558.116,351.706 560.272,355.722 560.272,362.988 C560.272,370.3 558.116,374.253 554.163,374.253 C550.194,374.253 548.054,370.3 548.054,363.034 C548.054,355.566 550.147,351.706 554.272,351.706 M579.304,350.175 L569.569,350.784 L569.569,353.144 L571.819,353.144 C573.913,353.191 574.194,353.534 574.194,355.894 L574.194,371.628 C574.132,372.441 574.085,372.769 573.851,373.05 C573.476,373.55 572.366,373.769 570.007,373.816 L569.788,373.816 L569.788,375.8 L584.476,375.8 L584.476,373.816 L583.476,373.816 C579.804,373.706 579.304,373.441 579.304,371.456 L579.304,368.488 C579.351,359.253 582.663,352.206 586.944,351.988 C586.179,352.863 585.96,353.425 585.96,354.456 C585.96,356.222 587.226,357.488 588.976,357.488 C591.022,357.488 592.335,356.003 592.335,353.8 C592.335,351.113 590.46,349.347 587.554,349.347 C584.085,349.347 581.116,352.097 579.304,356.988 L579.304,350.175 M613.304,376.191 L622.882,375.8 L622.882,373.441 L621.882,373.441 C618.757,373.269 618.476,372.941 618.476,369.425 L618.476,335.269 L607.694,335.878 L607.694,338.238 L610.944,338.238 C613.038,338.3 613.304,338.628 613.304,340.988 L613.304,353.425 C611.272,350.613 608.913,349.347 605.726,349.347 C599.507,349.347 594.772,355.347 594.772,363.269 C594.772,371.066 599.335,376.628 605.726,376.628 C609.179,376.628 611.554,375.144 613.304,371.847 L613.304,376.191 M606.819,352.316 C609.069,352.316 611.226,353.972 612.21,356.503 C612.929,358.144 613.257,360.409 613.257,363.097 C613.257,369.534 610.726,373.659 606.772,373.659 C602.866,373.659 600.554,370.019 600.554,363.925 C600.554,360.628 600.882,358.144 601.601,356.331 C602.538,353.863 604.569,352.316 606.819,352.316 M647.069,376.191 L657.085,375.8 L657.085,373.441 L655.71,373.441 C652.507,373.331 652.241,373.003 652.241,369.425 L652.241,350.175 L641.897,350.784 L641.897,353.144 L644.71,353.144 C646.788,353.191 647.069,353.534 647.069,355.894 L647.069,362.659 C647.069,367.441 645.913,373.269 639.866,373.269 C638.163,373.269 636.726,372.659 636.022,371.566 C635.304,370.519 635.194,369.972 635.194,366.941 L635.194,350.175 L625.569,350.784 L625.569,353.144 L627.663,353.144 C629.741,353.191 630.022,353.534 630.022,355.894 L630.022,367.769 C630.022,370.581 630.241,371.847 631.069,373.113 C632.554,375.363 635.194,376.628 638.491,376.628 C642.116,376.628 644.647,375.144 647.069,371.628 L647.069,376.191 M669.46,350.175 L659.679,350.784 L659.679,353.144 L661.929,353.144 C664.022,353.191 664.304,353.534 664.304,355.894 L664.304,371.628 C664.241,372.441 664.194,372.769 663.96,373.05 C663.585,373.55 662.538,373.769 660.179,373.816 L659.96,373.816 L659.96,375.8 L673.804,375.8 L673.804,373.816 L673.585,373.816 C669.96,373.706 669.46,373.441 669.46,371.394 L669.46,361.222 C669.46,356.331 672.163,352.706 675.741,352.706 C678.866,352.706 680.46,354.956 680.46,359.409 L680.46,371.675 C680.413,372.394 680.351,372.769 680.085,373.05 C679.757,373.55 678.647,373.769 676.288,373.816 L676.069,373.816 L676.069,375.8 L689.976,375.8 L689.976,373.816 L689.757,373.816 C686.132,373.706 685.632,373.441 685.632,371.456 L685.632,361.722 C685.632,356.222 688.116,352.706 691.96,352.706 C695.101,352.706 696.632,355.066 696.632,360.019 L696.632,371.628 C696.585,372.394 696.522,372.769 696.241,373.05 C695.913,373.55 694.819,373.769 692.46,373.816 L692.241,373.816 L692.241,375.8 L706.147,375.8 L706.147,373.816 L705.929,373.816 C702.304,373.706 701.804,373.441 701.804,371.394 L701.804,358.925 C701.804,355.503 701.476,354.347 700.038,352.488 C698.444,350.441 696.194,349.347 693.554,349.347 C689.976,349.347 687.335,351.05 684.976,354.847 C684.038,351.55 681.069,349.347 677.382,349.347 C674.038,349.347 671.616,350.941 669.46,354.409 L669.46,350.175 M733.413,350.175 L723.897,350.784 L723.897,353.144 L725.882,353.144 C727.96,353.191 728.241,353.534 728.241,355.894 L728.241,371.628 C728.194,372.441 728.132,372.769 727.913,373.05 C727.522,373.55 726.476,373.769 724.116,373.816 L723.897,373.816 L723.897,375.8 L737.804,375.8 L737.804,373.816 L737.585,373.816 C733.913,373.706 733.413,373.441 733.413,371.456 L733.413,363.316 C733.413,360.628 733.804,358.144 734.397,356.878 C735.554,354.409 738.038,352.706 740.397,352.706 C741.819,352.706 743.476,353.472 744.304,354.628 C745.132,355.831 745.507,357.488 745.507,360.128 L745.507,371.628 C745.46,372.441 745.397,372.769 745.179,373.05 C744.788,373.55 743.694,373.769 741.335,373.816 L741.116,373.816 L741.116,375.8 L755.022,375.8 L755.022,373.816 L754.804,373.816 C751.179,373.706 750.679,373.441 750.679,371.456 L750.679,360.409 C750.679,356.441 750.507,355.456 749.522,353.581 C748.147,350.941 745.397,349.347 742.101,349.347 C738.522,349.347 735.835,351.003 733.413,354.628 L733.413,350.175 M781.272,358.097 C781.272,354.628 780.663,352.863 779.069,351.55 C777.257,350.066 774.554,349.347 771.038,349.347 C764.819,349.347 760.319,352.269 760.319,356.284 C760.319,358.316 761.585,359.628 763.507,359.628 C765.272,359.628 766.476,358.472 766.476,356.831 C766.476,356.113 766.194,355.347 765.647,354.566 C765.319,354.191 765.272,354.081 765.272,353.8 C765.272,352.706 767.46,351.706 770.101,351.706 C771.866,351.706 773.788,352.269 774.663,353.081 C775.71,353.972 776.101,355.284 776.101,357.769 L776.101,359.909 C770.382,360.894 768.569,361.331 765.866,362.378 C761.085,364.144 758.835,366.675 758.835,370.191 C758.835,374.144 761.913,376.628 766.804,376.628 C770.601,376.628 774.007,375.081 776.382,372.284 C777.257,375.081 778.632,376.191 781.21,376.191 C783.694,376.191 786.272,374.597 786.272,373.003 C786.272,372.613 786.054,372.331 785.726,372.331 C785.507,372.331 785.288,372.394 784.897,372.55 C784.132,372.878 783.804,372.941 783.366,372.941 C781.819,372.941 781.272,371.956 781.272,369.144 L781.272,358.097 M776.101,364.8 C776.101,368.097 775.929,368.878 775.007,370.3 C773.632,372.331 771.147,373.706 768.726,373.706 C766.194,373.706 764.382,371.894 764.382,369.425 C764.382,367.113 765.538,365.456 767.96,364.3 C769.663,363.534 771.804,362.988 776.101,362.269 L776.101,364.8 M797.085,350.175 L797.085,339.284 L794.819,339.284 C794.272,346.441 791.851,350.066 787.397,350.394 L787.397,352.534 L791.913,352.534 L791.913,366.566 C791.913,370.409 792.022,371.784 792.569,373.05 C793.46,375.363 795.647,376.628 798.835,376.628 C803.788,376.628 806.976,372.878 806.976,367.05 C806.976,366.722 806.976,366.347 806.929,365.784 L804.616,365.784 C804.444,370.738 803.022,373.269 800.319,373.269 C799.054,373.269 797.96,372.613 797.569,371.675 C797.241,370.909 797.085,369.534 797.085,367.55 L797.085,352.534 L805.163,352.534 L805.163,350.175 L797.085,350.175 M830.069,376.191 L840.085,375.8 L840.085,373.441 L838.71,373.441 C835.507,373.331 835.241,373.003 835.241,369.425 L835.241,350.175 L824.897,350.784 L824.897,353.144 L827.71,353.144 C829.788,353.191 830.069,353.534 830.069,355.894 L830.069,362.659 C830.069,367.441 828.913,373.269 822.866,373.269 C821.163,373.269 819.726,372.659 819.022,371.566 C818.304,370.519 818.194,369.972 818.194,366.941 L818.194,350.175 L808.569,350.784 L808.569,353.144 L810.663,353.144 C812.741,353.191 813.022,353.534 813.022,355.894 L813.022,367.769 C813.022,370.581 813.241,371.847 814.069,373.113 C815.554,375.363 818.194,376.628 821.491,376.628 C825.116,376.628 827.647,375.144 830.069,371.628 L830.069,376.191 M852.304,350.175 L842.569,350.784 L842.569,353.144 L844.819,353.144 C846.913,353.191 847.194,353.534 847.194,355.894 L847.194,371.628 C847.132,372.441 847.085,372.769 846.851,373.05 C846.476,373.55 845.366,373.769 843.007,373.816 L842.788,373.816 L842.788,375.8 L857.476,375.8 L857.476,373.816 L856.476,373.816 C852.804,373.706 852.304,373.441 852.304,371.456 L852.304,368.488 C852.351,359.253 855.663,352.206 859.944,351.988 C859.179,352.863 858.96,353.425 858.96,354.456 C858.96,356.222 860.226,357.488 861.976,357.488 C864.022,357.488 865.335,356.003 865.335,353.8 C865.335,351.113 863.46,349.347 860.554,349.347 C857.085,349.347 854.116,352.097 852.304,356.988 L852.304,350.175 M890.272,358.097 C890.272,354.628 889.663,352.863 888.069,351.55 C886.257,350.066 883.554,349.347 880.038,349.347 C873.819,349.347 869.319,352.269 869.319,356.284 C869.319,358.316 870.585,359.628 872.507,359.628 C874.272,359.628 875.476,358.472 875.476,356.831 C875.476,356.113 875.194,355.347 874.647,354.566 C874.319,354.191 874.272,354.081 874.272,353.8 C874.272,352.706 876.46,351.706 879.101,351.706 C880.866,351.706 882.788,352.269 883.663,353.081 C884.71,353.972 885.101,355.284 885.101,357.769 L885.101,359.909 C879.382,360.894 877.569,361.331 874.866,362.378 C870.085,364.144 867.835,366.675 867.835,370.191 C867.835,374.144 870.913,376.628 875.804,376.628 C879.601,376.628 883.007,375.081 885.382,372.284 C886.257,375.081 887.632,376.191 890.21,376.191 C892.694,376.191 895.272,374.597 895.272,373.003 C895.272,372.613 895.054,372.331 894.726,372.331 C894.507,372.331 894.288,372.394 893.897,372.55 C893.132,372.878 892.804,372.941 892.366,372.941 C890.819,372.941 890.272,371.956 890.272,369.144 L890.272,358.097 M885.101,364.8 C885.101,368.097 884.929,368.878 884.007,370.3 C882.632,372.331 880.147,373.706 877.726,373.706 C875.194,373.706 873.382,371.894 873.382,369.425 C873.382,367.113 874.538,365.456 876.96,364.3 C878.663,363.534 880.804,362.988 885.101,362.269 L885.101,364.8 M907.632,335.269 L897.46,335.878 L897.46,338.238 L900.147,338.238 C902.194,338.3 902.46,338.628 902.46,340.988 L902.46,371.628 C902.413,372.441 902.351,372.769 902.132,373.05 C901.741,373.55 900.71,373.769 898.335,373.816 L897.96,373.816 L897.96,375.8 L912.194,375.8 L912.194,373.816 L911.804,373.816 C908.132,373.706 907.632,373.441 907.632,371.456 L907.632,335.269 M938.991,363.425 C939.038,355.175 934.366,349.347 927.663,349.347 C920.616,349.347 915.335,355.456 915.335,363.706 C915.335,371.456 920.335,376.628 927.772,376.628 C933.038,376.628 936.726,374.034 938.991,368.816 L937.054,367.769 C934.804,372.003 932.491,373.659 928.804,373.659 C926.007,373.659 923.976,372.503 922.538,370.019 C921.554,368.378 921.116,366.456 921.163,363.425 L938.991,363.425 M921.226,361.066 C921.226,357.206 922.976,351.706 927.601,351.706 C930.897,351.706 933.101,354.628 933.101,359.081 C933.101,360.628 932.601,361.066 930.851,361.066 L921.226,361.066 "/>
<path class="Text" d="M2148.49,335.269 L2138.32,335.878 L2138.32,338.238 L2140.96,338.238 C2143.04,338.3 2143.32,338.628 2143.32,340.988 L2143.32,371.675 C2143.27,372.441 2143.21,372.769 2142.99,373.05 C2142.6,373.55 2141.55,373.769 2139.19,373.816 L2138.97,373.816 L2138.97,375.8 L2152.88,375.8 L2152.88,373.816 L2152.66,373.816 C2148.99,373.706 2148.49,373.441 2148.49,371.456 L2148.49,363.316 C2148.49,360.628 2148.88,358.144 2149.47,356.878 C2150.69,354.409 2153.12,352.706 2155.47,352.706 C2156.9,352.706 2158.55,353.534 2159.32,354.628 C2160.21,355.831 2160.58,357.488 2160.58,360.175 L2160.58,371.675 C2160.54,372.441 2160.47,372.769 2160.26,373.05 C2159.87,373.55 2158.77,373.769 2156.41,373.816 L2156.19,373.816 L2156.19,375.8 L2170.1,375.8 L2170.1,373.816 L2169.88,373.816 C2166.26,373.706 2165.76,373.441 2165.76,371.456 L2165.76,360.409 C2165.76,356.441 2165.58,355.456 2164.6,353.581 C2163.22,350.894 2160.47,349.347 2157.18,349.347 C2153.6,349.347 2150.96,350.941 2148.49,354.628 L2148.49,335.269 M2197.07,363.425 C2197.12,355.175 2192.44,349.347 2185.74,349.347 C2178.69,349.347 2173.41,355.456 2173.41,363.706 C2173.41,371.456 2178.41,376.628 2185.85,376.628 C2191.12,376.628 2194.8,374.034 2197.07,368.816 L2195.13,367.769 C2192.88,372.003 2190.57,373.659 2186.88,373.659 C2184.08,373.659 2182.05,372.503 2180.62,370.019 C2179.63,368.378 2179.19,366.456 2179.24,363.425 L2197.07,363.425 M2179.3,361.066 C2179.3,357.206 2181.05,351.706 2185.68,351.706 C2188.97,351.706 2191.18,354.628 2191.18,359.081 C2191.18,360.628 2190.68,361.066 2188.93,361.066 L2179.3,361.066 M2215.49,361.784 L2221.76,354.456 C2223.13,352.863 2224.4,352.159 2225.88,352.159 L2226.37,352.159 L2226.37,350.175 L2214.99,350.175 L2214.99,352.159 L2216.04,352.159 C2217.68,352.159 2218.51,352.534 2218.51,353.363 C2218.51,353.909 2218.12,354.675 2217.41,355.566 L2213.94,359.738 L2209.71,354.347 C2209.38,353.909 2209.16,353.472 2209.16,353.144 C2209.16,352.425 2209.88,352.159 2211.58,352.159 L2212.35,352.159 L2212.35,350.175 L2199.32,350.175 L2199.32,352.159 C2201.35,352.316 2202.12,352.816 2203.88,355.128 L2210.58,363.534 L2204.27,370.909 C2202.4,373.003 2200.8,373.878 2199.32,373.816 L2198.99,373.816 L2198.99,375.8 L2210.58,375.8 L2210.58,373.816 L2209.77,373.816 C2208.51,373.816 2208.22,373.769 2207.83,373.597 C2207.4,373.331 2207.07,372.831 2207.07,372.331 C2207.07,371.956 2207.24,371.456 2207.51,371.128 L2212.13,365.628 L2216.3,371.175 C2216.69,371.738 2217.02,372.441 2217.02,372.831 C2217.02,373.55 2216.19,373.816 2214.12,373.816 L2213.72,373.816 L2213.72,375.8 L2227.58,375.8 L2227.58,373.816 L2227.19,373.816 C2225.27,373.816 2224.01,373.113 2222.41,371.128 L2215.49,361.784 M2253.35,358.097 C2253.35,354.628 2252.74,352.863 2251.15,351.55 C2249.33,350.066 2246.63,349.347 2243.12,349.347 C2236.9,349.347 2232.4,352.269 2232.4,356.284 C2232.4,358.316 2233.66,359.628 2235.58,359.628 C2237.35,359.628 2238.55,358.472 2238.55,356.831 C2238.55,356.113 2238.27,355.347 2237.72,354.566 C2237.4,354.191 2237.35,354.081 2237.35,353.8 C2237.35,352.706 2239.54,351.706 2242.18,351.706 C2243.94,351.706 2245.87,352.269 2246.74,353.081 C2247.79,353.972 2248.18,355.284 2248.18,357.769 L2248.18,359.909 C2242.46,360.894 2240.65,361.331 2237.94,362.378 C2233.16,364.144 2230.91,366.675 2230.91,370.191 C2230.91,374.144 2233.99,376.628 2238.88,376.628 C2242.68,376.628 2246.08,375.081 2248.46,372.284 C2249.33,375.081 2250.71,376.191 2253.29,376.191 C2255.77,376.191 2258.35,374.597 2258.35,373.003 C2258.35,372.613 2258.13,372.331 2257.8,372.331 C2257.58,372.331 2257.37,372.394 2256.97,372.55 C2256.21,372.878 2255.88,372.941 2255.44,372.941 C2253.9,372.941 2253.35,371.956 2253.35,369.144 L2253.35,358.097 M2248.18,364.8 C2248.18,368.097 2248.01,368.878 2247.08,370.3 C2245.71,372.331 2243.22,373.706 2240.8,373.706 C2238.27,373.706 2236.46,371.894 2236.46,369.425 C2236.46,367.113 2237.62,365.456 2240.04,364.3 C2241.74,363.534 2243.88,362.988 2248.18,362.269 L2248.18,364.8 M2280.77,367.722 C2279.01,371.675 2277.15,373.269 2274.29,373.269 C2269.88,373.269 2267.13,369.253 2267.13,362.816 C2267.13,356.113 2269.83,351.706 2273.9,351.706 C2275.55,351.706 2276.97,352.488 2276.97,353.363 C2276.97,353.534 2276.93,353.691 2276.65,354.019 C2275.77,355.066 2275.55,355.613 2275.55,356.55 C2275.55,358.363 2276.93,359.628 2278.85,359.628 C2280.83,359.628 2282.21,358.097 2282.21,355.894 C2282.21,352.159 2278.52,349.347 2273.63,349.347 C2266.47,349.347 2261.37,355.175 2261.37,363.425 C2261.37,371.238 2266.04,376.628 2272.85,376.628 C2277.74,376.628 2280.55,374.363 2282.91,368.534 L2280.77,367.722 M2293.49,335.269 L2283.32,335.878 L2283.32,338.238 L2285.96,338.238 C2288.04,338.3 2288.32,338.628 2288.32,340.988 L2288.32,371.675 C2288.27,372.441 2288.21,372.769 2287.99,373.05 C2287.6,373.55 2286.55,373.769 2284.19,373.816 L2283.97,373.816 L2283.97,375.8 L2297.88,375.8 L2297.88,373.816 L2297.66,373.816 C2293.99,373.706 2293.49,373.441 2293.49,371.456 L2293.49,363.316 C2293.49,360.628 2293.88,358.144 2294.47,356.878 C2295.69,354.409 2298.12,352.706 2300.47,352.706 C2301.9,352.706 2303.55,353.534 2304.32,354.628 C2305.21,355.831 2305.58,357.488 2305.58,360.175 L2305.58,371.675 C2305.54,372.441 2305.47,372.769 2305.26,373.05 C2304.87,373.55 2303.77,373.769 2301.41,373.816 L2301.19,373.816 L2301.19,375.8 L2315.1,375.8 L2315.1,373.816 L2314.88,373.816 C2311.26,373.706 2310.76,373.441 2310.76,371.456 L2310.76,360.409 C2310.76,356.441 2310.58,355.456 2309.6,353.581 C2308.22,350.894 2305.47,349.347 2302.18,349.347 C2298.6,349.347 2295.96,350.941 2293.49,354.628 L2293.49,335.269 M2330.35,349.347 C2323.58,349.347 2318.37,355.347 2318.37,363.034 C2318.37,370.581 2323.65,376.628 2330.24,376.628 C2336.83,376.628 2342.12,370.581 2342.12,362.988 C2342.12,355.456 2336.83,349.347 2330.35,349.347 M2330.35,351.706 C2334.19,351.706 2336.35,355.722 2336.35,362.988 C2336.35,370.3 2334.19,374.253 2330.24,374.253 C2326.27,374.253 2324.13,370.3 2324.13,363.034 C2324.13,355.566 2326.22,351.706 2330.35,351.706 M2355.38,350.175 L2345.65,350.784 L2345.65,353.144 L2347.9,353.144 C2349.99,353.191 2350.27,353.534 2350.27,355.894 L2350.27,371.628 C2350.21,372.441 2350.16,372.769 2349.93,373.05 C2349.55,373.55 2348.44,373.769 2346.08,373.816 L2345.87,373.816 L2345.87,375.8 L2360.55,375.8 L2360.55,373.816 L2359.55,373.816 C2355.88,373.706 2355.38,373.441 2355.38,371.456 L2355.38,368.488 C2355.43,359.253 2358.74,352.206 2363.02,351.988 C2362.26,352.863 2362.04,353.425 2362.04,354.456 C2362.04,356.222 2363.3,357.488 2365.05,357.488 C2367.1,357.488 2368.41,356.003 2368.41,353.8 C2368.41,351.113 2366.54,349.347 2363.63,349.347 C2360.16,349.347 2357.19,352.097 2355.38,356.988 L2355.38,350.175 M2389.38,376.191 L2398.96,375.8 L2398.96,373.441 L2397.96,373.441 C2394.83,373.269 2394.55,372.941 2394.55,369.425 L2394.55,335.269 L2383.77,335.878 L2383.77,338.238 L2387.02,338.238 C2389.12,338.3 2389.38,338.628 2389.38,340.988 L2389.38,353.425 C2387.35,350.613 2384.99,349.347 2381.8,349.347 C2375.58,349.347 2370.85,355.347 2370.85,363.269 C2370.85,371.066 2375.41,376.628 2381.8,376.628 C2385.26,376.628 2387.63,375.144 2389.38,371.847 L2389.38,376.191 M2382.9,352.316 C2385.15,352.316 2387.3,353.972 2388.29,356.503 C2389.01,358.144 2389.33,360.409 2389.33,363.097 C2389.33,369.534 2386.8,373.659 2382.85,373.659 C2378.94,373.659 2376.63,370.019 2376.63,363.925 C2376.63,360.628 2376.96,358.144 2377.68,356.331 C2378.62,353.863 2380.65,352.316 2382.9,352.316 M2423.15,376.191 L2433.16,375.8 L2433.16,373.441 L2431.79,373.441 C2428.58,373.331 2428.32,373.003 2428.32,369.425 L2428.32,350.175 L2417.97,350.784 L2417.97,353.144 L2420.79,353.144 C2422.87,353.191 2423.15,353.534 2423.15,355.894 L2423.15,362.659 C2423.15,367.441 2421.99,373.269 2415.94,373.269 C2414.24,373.269 2412.8,372.659 2412.1,371.566 C2411.38,370.519 2411.27,369.972 2411.27,366.941 L2411.27,350.175 L2401.65,350.784 L2401.65,353.144 L2403.74,353.144 C2405.82,353.191 2406.1,353.534 2406.1,355.894 L2406.1,367.769 C2406.1,370.581 2406.32,371.847 2407.15,373.113 C2408.63,375.363 2411.27,376.628 2414.57,376.628 C2418.19,376.628 2420.72,375.144 2423.15,371.628 L2423.15,376.191 M2445.54,350.175 L2435.76,350.784 L2435.76,353.144 L2438.01,353.144 C2440.1,353.191 2440.38,353.534 2440.38,355.894 L2440.38,371.628 C2440.32,372.441 2440.27,372.769 2440.04,373.05 C2439.66,373.55 2438.62,373.769 2436.26,373.816 L2436.04,373.816 L2436.04,375.8 L2449.88,375.8 L2449.88,373.816 L2449.66,373.816 C2446.04,373.706 2445.54,373.441 2445.54,371.394 L2445.54,361.222 C2445.54,356.331 2448.24,352.706 2451.82,352.706 C2454.94,352.706 2456.54,354.956 2456.54,359.409 L2456.54,371.675 C2456.49,372.394 2456.43,372.769 2456.16,373.05 C2455.83,373.55 2454.72,373.769 2452.37,373.816 L2452.15,373.816 L2452.15,375.8 L2466.05,375.8 L2466.05,373.816 L2465.83,373.816 C2462.21,373.706 2461.71,373.441 2461.71,371.456 L2461.71,361.722 C2461.71,356.222 2464.19,352.706 2468.04,352.706 C2471.18,352.706 2472.71,355.066 2472.71,360.019 L2472.71,371.628 C2472.66,372.394 2472.6,372.769 2472.32,373.05 C2471.99,373.55 2470.9,373.769 2468.54,373.816 L2468.32,373.816 L2468.32,375.8 L2482.22,375.8 L2482.22,373.816 L2482.01,373.816 C2478.38,373.706 2477.88,373.441 2477.88,371.394 L2477.88,358.925 C2477.88,355.503 2477.55,354.347 2476.12,352.488 C2474.52,350.441 2472.27,349.347 2469.63,349.347 C2466.05,349.347 2463.41,351.05 2461.05,354.847 C2460.12,351.55 2457.15,349.347 2453.46,349.347 C2450.12,349.347 2447.69,350.941 2445.54,354.409 L2445.54,350.175 M2519.38,376.191 L2528.96,375.8 L2528.96,373.441 L2527.96,373.441 C2524.83,373.269 2524.55,372.941 2524.55,369.425 L2524.55,335.269 L2513.77,335.878 L2513.77,338.238 L2517.02,338.238 C2519.12,338.3 2519.38,338.628 2519.38,340.988 L2519.38,353.425 C2517.35,350.613 2514.99,349.347 2511.8,349.347 C2505.58,349.347 2500.85,355.347 2500.85,363.269 C2500.85,371.066 2505.41,376.628 2511.8,376.628 C2515.26,376.628 2517.63,375.144 2519.38,371.847 L2519.38,376.191 M2512.9,352.316 C2515.15,352.316 2517.3,353.972 2518.29,356.503 C2519.01,358.144 2519.33,360.409 2519.33,363.097 C2519.33,369.534 2516.8,373.659 2512.85,373.659 C2508.94,373.659 2506.63,370.019 2506.63,363.925 C2506.63,360.628 2506.96,358.144 2507.68,356.331 C2508.62,353.863 2510.65,352.316 2512.9,352.316 M2553.15,376.191 L2563.16,375.8 L2563.16,373.441 L2561.79,373.441 C2558.58,373.331 2558.32,373.003 2558.32,369.425 L2558.32,350.175 L2547.97,350.784 L2547.97,353.144 L2550.79,353.144 C2552.87,353.191 2553.15,353.534 2553.15,355.894 L2553.15,362.659 C2553.15,367.441 2551.99,373.269 2545.94,373.269 C2544.24,373.269 2542.8,372.659 2542.1,371.566 C2541.38,370.519 2541.27,369.972 2541.27,366.941 L2541.27,350.175 L2531.65,350.784 L2531.65,353.144 L2533.74,353.144 C2535.82,353.191 2536.1,353.534 2536.1,355.894 L2536.1,367.769 C2536.1,370.581 2536.32,371.847 2537.15,373.113 C2538.63,375.363 2541.27,376.628 2544.57,376.628 C2548.19,376.628 2550.72,375.144 2553.15,371.628 L2553.15,376.191 M2575.38,350.175 L2565.65,350.784 L2565.65,353.144 L2567.9,353.144 C2569.99,353.191 2570.27,353.534 2570.27,355.894 L2570.27,371.628 C2570.21,372.441 2570.16,372.769 2569.93,373.05 C2569.55,373.55 2568.44,373.769 2566.08,373.816 L2565.87,373.816 L2565.87,375.8 L2580.55,375.8 L2580.55,373.816 L2579.55,373.816 C2575.88,373.706 2575.38,373.441 2575.38,371.456 L2575.38,368.488 C2575.43,359.253 2578.74,352.206 2583.02,351.988 C2582.26,352.863 2582.04,353.425 2582.04,354.456 C2582.04,356.222 2583.3,357.488 2585.05,357.488 C2587.1,357.488 2588.41,356.003 2588.41,353.8 C2588.41,351.113 2586.54,349.347 2583.63,349.347 C2580.16,349.347 2577.19,352.097 2575.38,356.988 L2575.38,350.175 M2612.15,376.191 L2622.16,375.8 L2622.16,373.441 L2620.79,373.441 C2617.58,373.331 2617.32,373.003 2617.32,369.425 L2617.32,350.175 L2606.97,350.784 L2606.97,353.144 L2609.79,353.144 C2611.87,353.191 2612.15,353.534 2612.15,355.894 L2612.15,362.659 C2612.15,367.441 2610.99,373.269 2604.94,373.269 C2603.24,373.269 2601.8,372.659 2601.1,371.566 C2600.38,370.519 2600.27,369.972 2600.27,366.941 L2600.27,350.175 L2590.65,350.784 L2590.65,353.144 L2592.74,353.144 C2594.82,353.191 2595.1,353.534 2595.1,355.894 L2595.1,367.769 C2595.1,370.581 2595.32,371.847 2596.15,373.113 C2597.63,375.363 2600.27,376.628 2603.57,376.628 C2607.19,376.628 2609.72,375.144 2612.15,371.628 L2612.15,376.191 M2634.54,350.175 L2624.76,350.784 L2624.76,353.144 L2627.01,353.144 C2629.1,353.191 2629.38,353.534 2629.38,355.894 L2629.38,371.628 C2629.32,372.441 2629.27,372.769 2629.04,373.05 C2628.66,373.55 2627.62,373.769 2625.26,373.816 L2625.04,373.816 L2625.04,375.8 L2638.88,375.8 L2638.88,373.816 L2638.66,373.816 C2635.04,373.706 2634.54,373.441 2634.54,371.394 L2634.54,361.222 C2634.54,356.331 2637.24,352.706 2640.82,352.706 C2643.94,352.706 2645.54,354.956 2645.54,359.409 L2645.54,371.675 C2645.49,372.394 2645.43,372.769 2645.16,373.05 C2644.83,373.55 2643.72,373.769 2641.37,373.816 L2641.15,373.816 L2641.15,375.8 L2655.05,375.8 L2655.05,373.816 L2654.83,373.816 C2651.21,373.706 2650.71,373.441 2650.71,371.456 L2650.71,361.722 C2650.71,356.222 2653.19,352.706 2657.04,352.706 C2660.18,352.706 2661.71,355.066 2661.71,360.019 L2661.71,371.628 C2661.66,372.394 2661.6,372.769 2661.32,373.05 C2660.99,373.55 2659.9,373.769 2657.54,373.816 L2657.32,373.816 L2657.32,375.8 L2671.22,375.8 L2671.22,373.816 L2671.01,373.816 C2667.38,373.706 2666.88,373.441 2666.88,371.394 L2666.88,358.925 C2666.88,355.503 2666.55,354.347 2665.12,352.488 C2663.52,350.441 2661.27,349.347 2658.63,349.347 C2655.05,349.347 2652.41,351.05 2650.05,354.847 C2649.12,351.55 2646.15,349.347 2642.46,349.347 C2639.12,349.347 2636.69,350.941 2634.54,354.409 L2634.54,350.175 "/>
<path class="Text" d="M1292.13,335.269 L1281.95,335.878 L1281.95,338.238 L1284.59,338.238 C1286.67,338.3 1286.95,338.628 1286.95,340.988 L1286.95,371.675 C1286.91,372.441 1286.84,372.769 1286.63,373.05 C1286.23,373.55 1285.19,373.769 1282.83,373.816 L1282.61,373.816 L1282.61,375.8 L1296.52,375.8 L1296.52,373.816 L1296.3,373.816 C1292.63,373.706 1292.13,373.441 1292.13,371.456 L1292.13,363.316 C1292.13,360.628 1292.52,358.144 1293.11,356.878 C1294.33,354.409 1296.75,352.706 1299.11,352.706 C1300.53,352.706 1302.19,353.534 1302.95,354.628 C1303.84,355.831 1304.22,357.488 1304.22,360.175 L1304.22,371.675 C1304.17,372.441 1304.11,372.769 1303.89,373.05 C1303.5,373.55 1302.41,373.769 1300.05,373.816 L1299.83,373.816 L1299.83,375.8 L1313.73,375.8 L1313.73,373.816 L1313.52,373.816 C1309.89,373.706 1309.39,373.441 1309.39,371.456 L1309.39,360.409 C1309.39,356.441 1309.22,355.456 1308.23,353.581 C1306.86,350.894 1304.11,349.347 1300.81,349.347 C1297.23,349.347 1294.59,350.941 1292.13,354.628 L1292.13,335.269 M1340.7,363.425 C1340.75,355.175 1336.08,349.347 1329.38,349.347 C1322.33,349.347 1317.05,355.456 1317.05,363.706 C1317.05,371.456 1322.05,376.628 1329.48,376.628 C1334.75,376.628 1338.44,374.034 1340.7,368.816 L1338.77,367.769 C1336.52,372.003 1334.2,373.659 1330.52,373.659 C1327.72,373.659 1325.69,372.503 1324.25,370.019 C1323.27,368.378 1322.83,366.456 1322.88,363.425 L1340.7,363.425 M1322.94,361.066 C1322.94,357.206 1324.69,351.706 1329.31,351.706 C1332.61,351.706 1334.81,354.628 1334.81,359.081 C1334.81,360.628 1334.31,361.066 1332.56,361.066 L1322.94,361.066 M1359.13,361.784 L1365.39,354.456 C1366.77,352.863 1368.03,352.159 1369.52,352.159 L1370,352.159 L1370,350.175 L1358.63,350.175 L1358.63,352.159 L1359.67,352.159 C1361.31,352.159 1362.14,352.534 1362.14,353.363 C1362.14,353.909 1361.75,354.675 1361.05,355.566 L1357.58,359.738 L1353.34,354.347 C1353.02,353.909 1352.8,353.472 1352.8,353.144 C1352.8,352.425 1353.52,352.159 1355.22,352.159 L1355.98,352.159 L1355.98,350.175 L1342.95,350.175 L1342.95,352.159 C1344.98,352.316 1345.75,352.816 1347.52,355.128 L1354.22,363.534 L1347.91,370.909 C1346.03,373.003 1344.44,373.878 1342.95,373.816 L1342.63,373.816 L1342.63,375.8 L1354.22,375.8 L1354.22,373.816 L1353.41,373.816 C1352.14,373.816 1351.86,373.769 1351.47,373.597 C1351.03,373.331 1350.7,372.831 1350.7,372.331 C1350.7,371.956 1350.88,371.456 1351.14,371.128 L1355.77,365.628 L1359.94,371.175 C1360.33,371.738 1360.66,372.441 1360.66,372.831 C1360.66,373.55 1359.83,373.816 1357.75,373.816 L1357.36,373.816 L1357.36,375.8 L1371.22,375.8 L1371.22,373.816 L1370.83,373.816 C1368.91,373.816 1367.64,373.113 1366.05,371.128 L1359.13,361.784 M1396.98,358.097 C1396.98,354.628 1396.38,352.863 1394.78,351.55 C1392.97,350.066 1390.27,349.347 1386.75,349.347 C1380.53,349.347 1376.03,352.269 1376.03,356.284 C1376.03,358.316 1377.3,359.628 1379.22,359.628 C1380.98,359.628 1382.19,358.472 1382.19,356.831 C1382.19,356.113 1381.91,355.347 1381.36,354.566 C1381.03,354.191 1380.98,354.081 1380.98,353.8 C1380.98,352.706 1383.17,351.706 1385.81,351.706 C1387.58,351.706 1389.5,352.269 1390.38,353.081 C1391.42,353.972 1391.81,355.284 1391.81,357.769 L1391.81,359.909 C1386.09,360.894 1384.28,361.331 1381.58,362.378 C1376.8,364.144 1374.55,366.675 1374.55,370.191 C1374.55,374.144 1377.63,376.628 1382.52,376.628 C1386.31,376.628 1389.72,375.081 1392.09,372.284 C1392.97,375.081 1394.34,376.191 1396.92,376.191 C1399.41,376.191 1401.98,374.597 1401.98,373.003 C1401.98,372.613 1401.77,372.331 1401.44,372.331 C1401.22,372.331 1401,372.394 1400.61,372.55 C1399.84,372.878 1399.52,372.941 1399.08,372.941 C1397.53,372.941 1396.98,371.956 1396.98,369.144 L1396.98,358.097 M1391.81,364.8 C1391.81,368.097 1391.64,368.878 1390.72,370.3 C1389.34,372.331 1386.86,373.706 1384.44,373.706 C1381.91,373.706 1380.09,371.894 1380.09,369.425 C1380.09,367.113 1381.25,365.456 1383.67,364.3 C1385.38,363.534 1387.52,362.988 1391.81,362.269 L1391.81,364.8 M1424.41,367.722 C1422.64,371.675 1420.78,373.269 1417.92,373.269 C1413.52,373.269 1410.77,369.253 1410.77,362.816 C1410.77,356.113 1413.47,351.706 1417.53,351.706 C1419.19,351.706 1420.61,352.488 1420.61,353.363 C1420.61,353.534 1420.56,353.691 1420.28,354.019 C1419.41,355.066 1419.19,355.613 1419.19,356.55 C1419.19,358.363 1420.56,359.628 1422.48,359.628 C1424.47,359.628 1425.84,358.097 1425.84,355.894 C1425.84,352.159 1422.16,349.347 1417.27,349.347 C1410.11,349.347 1405,355.175 1405,363.425 C1405,371.238 1409.67,376.628 1416.48,376.628 C1421.38,376.628 1424.19,374.363 1426.55,368.534 L1424.41,367.722 M1437.13,335.269 L1426.95,335.878 L1426.95,338.238 L1429.59,338.238 C1431.67,338.3 1431.95,338.628 1431.95,340.988 L1431.95,371.675 C1431.91,372.441 1431.84,372.769 1431.63,373.05 C1431.23,373.55 1430.19,373.769 1427.83,373.816 L1427.61,373.816 L1427.61,375.8 L1441.52,375.8 L1441.52,373.816 L1441.3,373.816 C1437.63,373.706 1437.13,373.441 1437.13,371.456 L1437.13,363.316 C1437.13,360.628 1437.52,358.144 1438.11,356.878 C1439.33,354.409 1441.75,352.706 1444.11,352.706 C1445.53,352.706 1447.19,353.534 1447.95,354.628 C1448.84,355.831 1449.22,357.488 1449.22,360.175 L1449.22,371.675 C1449.17,372.441 1449.11,372.769 1448.89,373.05 C1448.5,373.55 1447.41,373.769 1445.05,373.816 L1444.83,373.816 L1444.83,375.8 L1458.73,375.8 L1458.73,373.816 L1458.52,373.816 C1454.89,373.706 1454.39,373.441 1454.39,371.456 L1454.39,360.409 C1454.39,356.441 1454.22,355.456 1453.23,353.581 C1451.86,350.894 1449.11,349.347 1445.81,349.347 C1442.23,349.347 1439.59,350.941 1437.13,354.628 L1437.13,335.269 M1473.98,349.347 C1467.22,349.347 1462,355.347 1462,363.034 C1462,370.581 1467.28,376.628 1473.88,376.628 C1480.47,376.628 1485.75,370.581 1485.75,362.988 C1485.75,355.456 1480.47,349.347 1473.98,349.347 M1473.98,351.706 C1477.83,351.706 1479.98,355.722 1479.98,362.988 C1479.98,370.3 1477.83,374.253 1473.88,374.253 C1469.91,374.253 1467.77,370.3 1467.77,363.034 C1467.77,355.566 1469.86,351.706 1473.98,351.706 M1499.02,350.175 L1489.28,350.784 L1489.28,353.144 L1491.53,353.144 C1493.63,353.191 1493.91,353.534 1493.91,355.894 L1493.91,371.628 C1493.84,372.441 1493.8,372.769 1493.56,373.05 C1493.19,373.55 1492.08,373.769 1489.72,373.816 L1489.5,373.816 L1489.5,375.8 L1504.19,375.8 L1504.19,373.816 L1503.19,373.816 C1499.52,373.706 1499.02,373.441 1499.02,371.456 L1499.02,368.488 C1499.06,359.253 1502.38,352.206 1506.66,351.988 C1505.89,352.863 1505.67,353.425 1505.67,354.456 C1505.67,356.222 1506.94,357.488 1508.69,357.488 C1510.73,357.488 1512.05,356.003 1512.05,353.8 C1512.05,351.113 1510.17,349.347 1507.27,349.347 C1503.8,349.347 1500.83,352.097 1499.02,356.988 L1499.02,350.175 M1533.02,376.191 L1542.59,375.8 L1542.59,373.441 L1541.59,373.441 C1538.47,373.269 1538.19,372.941 1538.19,369.425 L1538.19,335.269 L1527.41,335.878 L1527.41,338.238 L1530.66,338.238 C1532.75,338.3 1533.02,338.628 1533.02,340.988 L1533.02,353.425 C1530.98,350.613 1528.63,349.347 1525.44,349.347 C1519.22,349.347 1514.48,355.347 1514.48,363.269 C1514.48,371.066 1519.05,376.628 1525.44,376.628 C1528.89,376.628 1531.27,375.144 1533.02,371.847 L1533.02,376.191 M1526.53,352.316 C1528.78,352.316 1530.94,353.972 1531.92,356.503 C1532.64,358.144 1532.97,360.409 1532.97,363.097 C1532.97,369.534 1530.44,373.659 1526.48,373.659 C1522.58,373.659 1520.27,370.019 1520.27,363.925 C1520.27,360.628 1520.59,358.144 1521.31,356.331 C1522.25,353.863 1524.28,352.316 1526.53,352.316 M1566.78,376.191 L1576.8,375.8 L1576.8,373.441 L1575.42,373.441 C1572.22,373.331 1571.95,373.003 1571.95,369.425 L1571.95,350.175 L1561.61,350.784 L1561.61,353.144 L1564.42,353.144 C1566.5,353.191 1566.78,353.534 1566.78,355.894 L1566.78,362.659 C1566.78,367.441 1565.63,373.269 1559.58,373.269 C1557.88,373.269 1556.44,372.659 1555.73,371.566 C1555.02,370.519 1554.91,369.972 1554.91,366.941 L1554.91,350.175 L1545.28,350.784 L1545.28,353.144 L1547.38,353.144 C1549.45,353.191 1549.73,353.534 1549.73,355.894 L1549.73,367.769 C1549.73,370.581 1549.95,371.847 1550.78,373.113 C1552.27,375.363 1554.91,376.628 1558.2,376.628 C1561.83,376.628 1564.36,375.144 1566.78,371.628 L1566.78,376.191 M1589.17,350.175 L1579.39,350.784 L1579.39,353.144 L1581.64,353.144 C1583.73,353.191 1584.02,353.534 1584.02,355.894 L1584.02,371.628 C1583.95,372.441 1583.91,372.769 1583.67,373.05 C1583.3,373.55 1582.25,373.769 1579.89,373.816 L1579.67,373.816 L1579.67,375.8 L1593.52,375.8 L1593.52,373.816 L1593.3,373.816 C1589.67,373.706 1589.17,373.441 1589.17,371.394 L1589.17,361.222 C1589.17,356.331 1591.88,352.706 1595.45,352.706 C1598.58,352.706 1600.17,354.956 1600.17,359.409 L1600.17,371.675 C1600.13,372.394 1600.06,372.769 1599.8,373.05 C1599.47,373.55 1598.36,373.769 1596,373.816 L1595.78,373.816 L1595.78,375.8 L1609.69,375.8 L1609.69,373.816 L1609.47,373.816 C1605.84,373.706 1605.34,373.441 1605.34,371.456 L1605.34,361.722 C1605.34,356.222 1607.83,352.706 1611.67,352.706 C1614.81,352.706 1616.34,355.066 1616.34,360.019 L1616.34,371.628 C1616.3,372.394 1616.23,372.769 1615.95,373.05 C1615.63,373.55 1614.53,373.769 1612.17,373.816 L1611.95,373.816 L1611.95,375.8 L1625.86,375.8 L1625.86,373.816 L1625.64,373.816 C1622.02,373.706 1621.52,373.441 1621.52,371.394 L1621.52,358.925 C1621.52,355.503 1621.19,354.347 1619.75,352.488 C1618.16,350.441 1615.91,349.347 1613.27,349.347 C1609.69,349.347 1607.05,351.05 1604.69,354.847 C1603.75,351.55 1600.78,349.347 1597.09,349.347 C1593.75,349.347 1591.33,350.941 1589.17,354.409 L1589.17,350.175 M1653.17,350.175 L1643.39,350.784 L1643.39,353.144 L1645.64,353.144 C1647.73,353.191 1648.02,353.534 1648.02,355.894 L1648.02,371.628 C1647.95,372.441 1647.91,372.769 1647.67,373.05 C1647.3,373.55 1646.25,373.769 1643.89,373.816 L1643.67,373.816 L1643.67,375.8 L1657.52,375.8 L1657.52,373.816 L1657.3,373.816 C1653.67,373.706 1653.17,373.441 1653.17,371.394 L1653.17,361.222 C1653.17,356.331 1655.88,352.706 1659.45,352.706 C1662.58,352.706 1664.17,354.956 1664.17,359.409 L1664.17,371.675 C1664.13,372.394 1664.06,372.769 1663.8,373.05 C1663.47,373.55 1662.36,373.769 1660,373.816 L1659.78,373.816 L1659.78,375.8 L1673.69,375.8 L1673.69,373.816 L1673.47,373.816 C1669.84,373.706 1669.34,373.441 1669.34,371.456 L1669.34,361.722 C1669.34,356.222 1671.83,352.706 1675.67,352.706 C1678.81,352.706 1680.34,355.066 1680.34,360.019 L1680.34,371.628 C1680.3,372.394 1680.23,372.769 1679.95,373.05 C1679.63,373.55 1678.53,373.769 1676.17,373.816 L1675.95,373.816 L1675.95,375.8 L1689.86,375.8 L1689.86,373.816 L1689.64,373.816 C1686.02,373.706 1685.52,373.441 1685.52,371.394 L1685.52,358.925 C1685.52,355.503 1685.19,354.347 1683.75,352.488 C1682.16,350.441 1679.91,349.347 1677.27,349.347 C1673.69,349.347 1671.05,351.05 1668.69,354.847 C1667.75,351.55 1664.78,349.347 1661.09,349.347 C1657.75,349.347 1655.33,350.941 1653.17,354.409 L1653.17,350.175 M1704.98,349.347 C1698.22,349.347 1693,355.347 1693,363.034 C1693,370.581 1698.28,376.628 1704.88,376.628 C1711.47,376.628 1716.75,370.581 1716.75,362.988 C1716.75,355.456 1711.47,349.347 1704.98,349.347 M1704.98,351.706 C1708.83,351.706 1710.98,355.722 1710.98,362.988 C1710.98,370.3 1708.83,374.253 1704.88,374.253 C1700.91,374.253 1698.77,370.3 1698.77,363.034 C1698.77,355.566 1700.86,351.706 1704.98,351.706 M1730.34,335.269 L1720.17,335.878 L1720.17,338.238 L1722.86,338.238 C1724.91,338.3 1725.17,338.628 1725.17,340.988 L1725.17,371.628 C1725.13,372.441 1725.06,372.769 1724.84,373.05 C1724.45,373.55 1723.42,373.769 1721.05,373.816 L1720.67,373.816 L1720.67,375.8 L1734.91,375.8 L1734.91,373.816 L1734.52,373.816 C1730.84,373.706 1730.34,373.441 1730.34,371.456 L1730.34,335.269 M1747.34,335.269 L1737.17,335.878 L1737.17,338.238 L1739.86,338.238 C1741.91,338.3 1742.17,338.628 1742.17,340.988 L1742.17,371.628 C1742.13,372.441 1742.06,372.769 1741.84,373.05 C1741.45,373.55 1740.42,373.769 1738.05,373.816 L1737.67,373.816 L1737.67,375.8 L1751.91,375.8 L1751.91,373.816 L1751.52,373.816 C1747.84,373.706 1747.34,373.441 1747.34,371.456 L1747.34,335.269 M1778.7,363.425 C1778.75,355.175 1774.08,349.347 1767.38,349.347 C1760.33,349.347 1755.05,355.456 1755.05,363.706 C1755.05,371.456 1760.05,376.628 1767.48,376.628 C1772.75,376.628 1776.44,374.034 1778.7,368.816 L1776.77,367.769 C1774.52,372.003 1772.2,373.659 1768.52,373.659 C1765.72,373.659 1763.69,372.503 1762.25,370.019 C1761.27,368.378 1760.83,366.456 1760.88,363.425 L1778.7,363.425 M1760.94,361.066 C1760.94,357.206 1762.69,351.706 1767.31,351.706 C1770.61,351.706 1772.81,354.628 1772.81,359.081 C1772.81,360.628 1772.31,361.066 1770.56,361.066 L1760.94,361.066 "/>
<polyline class="BarLine" fill="none" stroke="#000000" stroke-width="4.46" stroke-linejoin="bevel" points="1090.97,172.236 1090.97,274.164"/>
<polyline class="BarLine" fill="none" stroke="#000000" stroke-width="4.46" stroke-linejoin="bevel" points="2810.45,172.236 2810.45,274.164"/>
<polyline class="BarLine" fill="none" stroke="#000000" stroke-width="13.64" stroke-linejoin="bevel" points="2828.68,172.236 2828.68,274.164"/>
<polyline class="BarLine" fill="none" stroke="#000000" stroke-width="4.46" stroke-linejoin="bevel" points="1950.71,172.236 1950.71,274.164"/>
<path class="Accidental" transform="matrix(0.992,0,0,0.992,1509.43,223.2)" d="M12,-15.5 C7,-15.5 4.09375,-12.4063 3.59375,-11.7969 L4,-43.9063 C4,-44.7031 3.40625,-45.2969 2.59375,-45.2969 L1.40625,-45.2969 C0.59375,-45.2969 0,-44.7031 0,-43.9063 L0.5,16.2031 C0.5,17 1.09375,17.5938 1.90625,17.5938 C2.09375,17.5938 2.5,17.5 2.70313,17.4063 C11.2969,13.0938 20.2969,4.90625 20.2969,-5.40625 C20.2969,-10.5938 17.9063,-15.5 12,-15.5 M3.29688,12.7031 L3.59375,-6.79688 C3.79688,-7.70313 5.29688,-10.5938 9.29688,-10.5938 C12.9063,-10.5938 13.2031,-7.20313 13.2031,-5.09375 C13.2031,3.79688 9.90625,7.5 3.29688,12.7031"/>
<path class="Accidental" transform="matrix(0.992,0,0,0.992,2235.57,223.2)" d="M16.5938,-18.2969 C16.4063,-18.5 16.0938,-18.5938 15.7031,-18.5938 L15.5,-18.5 C15.5,-18.5 15.4063,-18.5 15.4063,-18.5 L2.79688,-15 L2.79688,-32.5 L0,-32.5 L0,17 C0,18.0938 0.90625,18.2969 1.79688,18.2969 L14.4063,14.7969 L14.4063,32.2969 L17.0938,32.2969 C17.0938,15.7031 17.0938,-0.09375 17.0938,-17.2031 C17.0938,-17.5938 16.9063,-18.0938 16.5938,-18.2969 M2.79688,9.70313 L2.79688,-6.70313 L14.4063,-10 L14.4063,6.5 L2.79688,9.70313 "/>
<polyline class="LedgerLine" fill="none" stroke="#000000" stroke-width="3.97" stroke-linejoin="bevel" points="257.513,297.6 310.88,297.6"/>
<path class="Note" transform="matrix(0.992,0,0,0.992,265.697,297.6)" d="M18.7031,-13.5938 C4.90625,-13.5938 0,-6.59375 0,-0.09375 C0,6.40625 4.90625,13.4063 18.7031,13.4063 C32.5,13.4063 37.2969,6.40625 37.2969,-0.09375 C37.2969,-6.59375 32.5,-13.5938 18.7031,-13.5938 M19.5,10.2031 C16.7031,10.2031 14.7969,9.40625 13.5,6.90625 C12.2031,4.40625 10.4063,-2.09375 10.2969,-4.70313 C10.0938,-7.40625 11.0938,-9 13.5,-9.79688 C14.7031,-10.2031 16.2969,-10.4063 17.9063,-10.4063 C20.5938,-10.4063 22.4063,-9.79688 23.7969,-7.09375 C25.2031,-4.5 27.1094,2 27.1094,4.5 C27.1094,9.40625 23.5,10.2031 19.5,10.2031"/>
<path class="Note" transform="matrix(0.992,0,0,0.992,402.473,285.2)" d="M18.7031,-13.5938 C4.90625,-13.5938 0,-6.59375 0,-0.09375 C0,6.40625 4.90625,13.4063 18.7031,13.4063 C32.5,13.4063 37.2969,6.40625 37.2969,-0.09375 C37.2969,-6.59375 32.5,-13.5938 18.7031,-13.5938 M19.5,10.2031 C16.7031,10.2031 14.7969,9.40625 13.5,6.90625 C12.2031,4.40625 10.4063,-2.09375 10.2969,-4.70313 C10.0938,-7.40625 11.0938,-9 13.5,-9.79688 C14.7031,-10.2031 16.2969,-10.4063 17.9063,-10.4063 C20.5938,-10.4063 22.4063,-9.79688 23.7969,-7.09375 C25.2031,-4.5 27.1094,2 27.1094,4.5 C27.1094,9.40625 23.5,10.2031 19.5,10.2031"/>
<path class="Note" transform="matrix(0.992,0,0,0.992,539.248,272.8)" d="M18.7031,-13.5938 C4.90625,-13.5938 0,-6.59375 0,-0.09375 C0,6.40625 4.90625,13.4063 18.7031,13.4063 C32.5,13.4063 37.2969,6.40625 37.2969,-0.09375 C37.2969,-6.59375 32.5,-13.5938 18.7031,-13.5938 M19.5,10.2031 C16.7031,10.2031 14.7969,9.40625 13.5,6.90625 C12.2031,4.40625 10.4063,-2.09375 10.2969,-4.70313 C10.0938,-7.40625 11.0938,-9 13.5,-9.79688 C14.7031,-10.2031 16.2969,-10.4063 17.9063,-10.4063 C20.5938,-10.4063 22.4063,-9.79688 23.7969,-7.09375 C25.2031,-4.5 27.1094,2 27.1094,4.5 C27.1094,9.40625 23.5,10.2031 19.5,10.2031"/>
<path class="Note" transform="matrix(0.992,0,0,0.992,676.024,260.4)" d="M18.7031,-13.5938 C4.90625,-13.5938 0,-6.59375 0,-0.09375 C0,6.40625 4.90625,13.4063 18.7031,13.4063 C32.5,13.4063 37.2969,6.40625 37.2969,-0.09375 C37.2969,-6.59375 32.5,-13.5938 18.7031,-13.5938 M19.5,10.2031 C16.7031,10.2031 14.7969,9.40625 13.5,6.90625 C12.2031,4.40625 10.4063,-2.09375 10.2969,-4.70313 C10.0938,-7.40625 11.0938,-9 13.5,-9.79688 C14.7031,-10.2031 16.2969,-10.4063 17.9063,-10.4063 C20.5938,-10.4063 22.4063,-9.79688 23.7969,-7.09375 C25.2031,-4.5 27.1094,2 27.1094,4.5 C27.1094,9.40625 23.5,10.2031 19.5,10.2031"/>
<path class="Note" transform="matrix(0.992,0,0,0.992,1809.32,198.4)" d="M18.7031,-13.5938 C4.90625,-13.5938 0,-6.59375 0,-0.09375 C0,6.40625 4.90625,13.4063 18.7031,13.4063 C32.5,13.4063 37.2969,6.40625 37.2969,-0.09375 C37.2969,-6.59375 32.5,-13.5938 18.7031,-13.5938 M19.5,10.2031 C16.7031,10.2031 14.7969,9.40625 13.5,6.90625 C12.2031,4.40625 10.4063,-2.09375 10.2969,-4.70313 C10.0938,-7.40625 11.0938,-9 13.5,-9.79688 C14.7031,-10.2031 16.2969,-10.4063 17.9063,-10.4063 C20.5938,-10.4063 22.4063,-9.79688 23.7969,-7.09375 C25.2031,-4.5 27.1094,2 27.1094,4.5 C27.1094,9.40625 23.5,10.2031 19.5,10.2031"/>
<path class="Note" transform="matrix(0.992,0,0,0.992,1535.77,223.2)" d="M18.7031,-13.5938 C4.90625,-13.5938 0,-6.59375 0,-0.09375 C0,6.40625 4.90625,13.4063 18.7031,13.4063 C32.5,13.4063 37.2969,6.40625 37.2969,-0.09375 C37.2969,-6.59375 32.5,-13.5938 18.7031,-13.5938 M19.5,10.2031 C16.7031,10.2031 14.7969,9.40625 13.5,6.90625 C12.2031,4.40625 10.4063,-2.09375 10.2969,-4.70313 C10.0938,-7.40625 11.0938,-9 13.5,-9.79688 C14.7031,-10.2031 16.2969,-10.4063 17.9063,-10.4063 C20.5938,-10.4063 22.4063,-9.79688 23.7969,-7.09375 C25.2031,-4.5 27.1094,2 27.1094,4.5 C27.1094,9.40625 23.5,10.2031 19.5,10.2031"/>
<path class="Note" transform="matrix(0.992,0,0,0.992,1398.99,235.6)" d="M18.7031,-13.5938 C4.90625,-13.5938 0,-6.59375 0,-0.09375 C0,6.40625 4.90625,13.4063 18.7031,13.4063 C32.5,13.4063 37.2969,6.40625 37.2969,-0.09375 C37.2969,-6.59375 32.5,-13.5938 18.7031,-13.5938 M19.5,10.2031 C16.7031,10.2031 14.7969,9.40625 13.5,6.90625 C12.2031,4.40625 10.4063,-2.09375 10.2969,-4.70313 C10.0938,-7.40625 11.0938,-9 13.5,-9.79688 C14.7031,-10.2031 16.2969,-10.4063 17.9063,-10.4063 C20.5938,-10.4063 22.4063,-9.79688 23.7969,-7.09375 C25.2031,-4.5 27.1094,2 27.1094,4.5 C27.1094,9.40625 23.5,10.2031 19.5,10.2031"/>
<path class="Note" transform="matrix(0.992,0,0,0.992,1985.18,248)" d="M18.7031,-13.5938 C4.90625,-13.5938 0,-6.59375 0,-0.09375 C0,6.40625 4.90625,13.4063 18.7031,13.4063 C32.5,13.4063 37.2969,6.40625 37.2969,-0.09375 C37.2969,-6.59375 32.5,-13.5938 18.7031,-13.5938 M19.5,10.2031 C16.7031,10.2031 14.7969,9.40625 13.5,6.90625 C12.2031,4.40625 10.4063,-2.09375 10.2969,-4.70313 C10.0938,-7.40625 11.0938,-9 13.5,-9.79688 C14.7031,-10.2031 16.2969,-10.4063 17.9063,-10.4063 C20.5938,-10.4063 22.4063,-9.79688 23.7969,-7.09375 C25.2031,-4.5 27.1094,2 27.1094,4.5 C27.1094,9.40625 23.5,10.2031 19.5,10.2031"/>
<path class="Note" transform="matrix(0.992,0,0,0.992,2121.95,235.6)" d="M18.7031,-13.5938 C4.90625,-13.5938 0,-6.59375 0,-0.09375 C0,6.40625 4.90625,13.4063 18.7031,13.4063 C32.5,13.4063 37.2969,6.40625 37.2969,-0.09375 C37.2969,-6.59375 32.5,-13.5938 18.7031,-13.5938 M19.5,10.2031 C16.7031,10.2031 14.7969,9.40625 13.5,6.90625 C12.2031,4.40625 10.4063,-2.09375 10.2969,-4.70313 C10.0938,-7.40625 11.0938,-9 13.5,-9.79688 C14.7031,-10.2031 16.2969,-10.4063 17.9063,-10.4063 C20.5938,-10.4063 22.4063,-9.79688 23.7969,-7.09375 C25.2031,-4.5 27.1094,2 27.1094,4.5 C27.1094,9.40625 23.5,10.2031 19.5,10.2031"/>
<path class="Note" transform="matrix(0.992,0,0,0.992,2258.73,223.2)" d="M18.7031,-13.5938 C4.90625,-13.5938 0,-6.59375 0,-0.09375 C0,6.40625 4.90625,13.4063 18.7031,13.4063 C32.5,13.4063 37.2969,6.40625 37.2969,-0.09375 C37.2969,-6.59375 32.5,-13.5938 18.7031,-13.5938 M19.5,10.2031 C16.7031,10.2031 14.7969,9.40625 13.5,6.90625 C12.2031,4.40625 10.4063,-2.09375 10.2969,-4.70313 C10.0938,-7.40625 11.0938,-9 13.5,-9.79688 C14.7031,-10.2031 16.2969,-10.4063 17.9063,-10.4063 C20.5938,-10.4063 22.4063,-9.79688 23.7969,-7.09375 C25.2031,-4.5 27.1094,2 27.1094,4.5 C27.1094,9.40625 23.5,10.2031 19.5,10.2031"/>
<path class="Note" transform="matrix(0.992,0,0,0.992,1672.54,210.8)" d="M18.7031,-13.5938 C4.90625,-13.5938 0,-6.59375 0,-0.09375 C0,6.40625 4.90625,13.4063 18.7031,13.4063 C32.5,13.4063 37.2969,6.40625 37.2969,-0.09375 C37.2969,-6.59375 32.5,-13.5938 18.7031,-13.5938 M19.5,10.2031 C16.7031,10.2031 14.7969,9.40625 13.5,6.90625 C12.2031,4.40625 10.4063,-2.09375 10.2969,-4.70313 C10.0938,-7.40625 11.0938,-9 13.5,-9.79688 C14.7031,-10.2031 16.2969,-10.4063 17.9063,-10.4063 C20.5938,-10.4063 22.4063,-9.79688 23.7969,-7.09375 C25.2031,-4.5 27.1094,2 27.1094,4.5 C27.1094,9.40625 23.5,10.2031 19.5,10.2031"/>
<path class="Note" transform="matrix(0.992,0,0,0.992,2395.51,210.8)" d="M18.7031,-13.5938 C4.90625,-13.5938 0,-6.59375 0,-0.09375 C0,6.40625 4.90625,13.4063 18.7031,13.4063 C32.5,13.4063 37.2969,6.40625 37.2969,-0.09375 C37.2969,-6.59375 32.5,-13.5938 18.7031,-13.5938 M19.5,10.2031 C16.7031,10.2031 14.7969,9.40625 13.5,6.90625 C12.2031,4.40625 10.4063,-2.09375 10.2969,-4.70313 C10.0938,-7.40625 11.0938,-9 13.5,-9.79688 C14.7031,-10.2031 16.2969,-10.4063 17.9063,-10.4063 C20.5938,-10.4063 22.4063,-9.79688 23.7969,-7.09375 C25.2031,-4.5 27.1094,2 27.1094,4.5 C27.1094,9.40625 23.5,10.2031 19.5,10.2031"/>
<path class="Note" transform="matrix(0.992,0,0,0.992,2532.28,198.4)" d="M18.7031,-13.5938 C4.90625,-13.5938 0,-6.59375 0,-0.09375 C0,6.40625 4.90625,13.4063 18.7031,13.4063 C32.5,13.4063 37.2969,6.40625 37.2969,-0.09375 C37.2969,-6.59375 32.5,-13.5938 18.7031,-13.5938 M19.5,10.2031 C16.7031,10.2031 14.7969,9.40625 13.5,6.90625 C12.2031,4.40625 10.4063,-2.09375 10.2969,-4.70313 C10.0938,-7.40625 11.0938,-9 13.5,-9.79688 C14.7031,-10.2031 16.2969,-10.4063 17.9063,-10.4063 C20.5938,-10.4063 22.4063,-9.79688 23.7969,-7.09375 C25.2031,-4.5 27.1094,2 27.1094,4.5 C27.1094,9.40625 23.5,10.2031 19.5,10.2031"/>
<path class="Note" transform="matrix(0.992,0,0,0.992,2669.06,186)" d="M18.7031,-13.5938 C4.90625,-13.5938 0,-6.59375 0,-0.09375 C0,6.40625 4.90625,13.4063 18.7031,13.4063 C32.5,13.4063 37.2969,6.40625 37.2969,-0.09375 C37.2969,-6.59375 32.5,-13.5938 18.7031,-13.5938 M19.5,10.2031 C16.7031,10.2031 14.7969,9.40625 13.5,6.90625 C12.2031,4.40625 10.4063,-2.09375 10.2969,-4.70313 C10.0938,-7.40625 11.0938,-9 13.5,-9.79688 C14.7031,-10.2031 16.2969,-10.4063 17.9063,-10.4063 C20.5938,-10.4063 22.4063,-9.79688 23.7969,-7.09375 C25.2031,-4.5 27.1094,2 27.1094,4.5 C27.1094,9.40625 23.5,10.2031 19.5,10.2031"/>
<path class="Note" transform="matrix(0.992,0,0,0.992,1262.21,248)" d="M18.7031,-13.5938 C4.90625,-13.5938 0,-6.59375 0,-0.09375 C0,6.40625 4.90625,13.4063 18.7031,13.4063 C32.5,13.4063 37.2969,6.40625 37.2969,-0.09375 C37.2969,-6.59375 32.5,-13.5938 18.7031,-13.5938 M19.5,10.2031 C16.7031,10.2031 14.7969,9.40625 13.5,6.90625 C12.2031,4.40625 10.4063,-2.09375 10.2969,-4.70313 C10.0938,-7.40625 11.0938,-9 13.5,-9.79688 C14.7031,-10.2031 16.2969,-10.4063 17.9063,-10.4063 C20.5938,-10.4063 22.4063,-9.79688 23.7969,-7.09375 C25.2031,-4.5 27.1094,2 27.1094,4.5 C27.1094,9.40625 23.5,10.2031 19.5,10.2031"/>
<path class="Note" transform="matrix(0.992,0,0,0.992,1125.44,260.4)" d="M18.7031,-13.5938 C4.90625,-13.5938 0,-6.59375 0,-0.09375 C0,6.40625 4.90625,13.4063 18.7031,13.4063 C32.5,13.4063 37.2969,6.40625 37.2969,-0.09375 C37.2969,-6.59375 32.5,-13.5938 18.7031,-13.5938 M19.5,10.2031 C16.7031,10.2031 14.7969,9.40625 13.5,6.90625 C12.2031,4.40625 10.4063,-2.09375 10.2969,-4.70313 C10.0938,-7.40625 11.0938,-9 13.5,-9.79688 C14.7031,-10.2031 16.2969,-10.4063 17.9063,-10.4063 C20.5938,-10.4063 22.4063,-9.79688 23.7969,-7.09375 C25.2031,-4.5 27.1094,2 27.1094,4.5 C27.1094,9.40625 23.5,10.2031 19.5,10.2031"/>
<path class="Note" transform="matrix(0.992,0,0,0.992,949.575,235.6)" d="M18.7031,-13.5938 C4.90625,-13.5938 0,-6.59375 0,-0.09375 C0,6.40625 4.90625,13.4063 18.7031,13.4063 C32.5,13.4063 37.2969,6.40625 37.2969,-0.09375 C37.2969,-6.59375 32.5,-13.5938 18.7031,-13.5938 M19.5,10.2031 C16.7031,10.2031 14.7969,9.40625 13.5,6.90625 C12.2031,4.40625 10.4063,-2.09375 10.2969,-4.70313 C10.0938,-7.40625 11.0938,-9 13.5,-9.79688 C14.7031,-10.2031 16.2969,-10.4063 17.9063,-10.4063 C20.5938,-10.4063 22.4063,-9.79688 23.7969,-7.09375 C25.2031,-4.5 27.1094,2 27.1094,4.5 C27.1094,9.40625 23.5,10.2031 19.5,10.2031"/>
<path class="Note" transform="matrix(0.992,0,0,0.992,812.8,248)" d="M18.7031,-13.5938 C4.90625,-13.5938 0,-6.59375 0,-0.09375 C0,6.40625 4.90625,13.4063 18.7031,13.4063 C32.5,13.4063 37.2969,6.40625 37.2969,-0.09375 C37.2969,-6.59375 32.5,-13.5938 18.7031,-13.5938 M19.5,10.2031 C16.7031,10.2031 14.7969,9.40625 13.5,6.90625 C12.2031,4.40625 10.4063,-2.09375 10.2969,-4.70313 C10.0938,-7.40625 11.0938,-9 13.5,-9.79688 C14.7031,-10.2031 16.2969,-10.4063 17.9063,-10.4063 C20.5938,-10.4063 22.4063,-9.79688 23.7969,-7.09375 C25.2031,-4.5 27.1094,2 27.1094,4.5 C27.1094,9.40625 23.5,10.2031 19.5,10.2031"/>
<path class="Clef" transform="matrix(0.992,0,0,0.992,142.6,248)" d="M12.2969,51.2969 C12.2969,57.9063 17.2969,66.6094 30.7969,66.6094 C35.5,66.6094 39.6094,65.4063 43.2031,63.2031 C48.6094,59.4063 50,52.7969 50,46.5 C50,42.6094 49.4063,38.1094 48.4063,32.4063 C48.1094,30.4063 47.5,27.4063 46.9063,23.5 C56.7031,20.2969 64,10.0938 64,-0.203125 C64,-15.2969 53.2969,-25.5 38.7031,-25.5 C37.7031,-31.5 36.7031,-37.4063 35.9063,-43 C46.4063,-54.1094 53.7031,-66.6094 53.7031,-82.5 C53.7031,-91.6094 50.9063,-99 49.2969,-102.609 C46.9063,-107.703 44,-111.203 42.2031,-111.203 C41.5,-111.203 38.4063,-110 35.1094,-106.109 C28.7031,-98.5 26.9063,-85.7031 26.9063,-77.3125 C26.9063,-71.9063 27.4063,-67 29.1094,-55.7969 C29,-55.7031 23.7969,-50.4063 21.7031,-48.7031 C12.5938,-40.2969 0,-28.1094 0,-8.09375 C0,10.5938 16.2969,25.2969 34.9063,25.2969 C37.7969,25.2969 40.5,25 42.7969,24.5938 C44.7031,34.2031 45.9063,41.2031 45.9063,46.5 C45.9063,56.9063 40.5,62.4063 30.4063,62.4063 C28,62.4063 25.9063,61.9063 25.7031,61.9063 C25.6094,61.7969 25.4063,61.7031 25.4063,61.6094 C25.4063,61.4063 25.6094,61.2969 25.9063,61.2969 C30.6094,60.5 35.2969,56.5 35.2969,50.1094 C35.2969,44.7031 31.2031,39 23.7031,39 C16.7031,39 12.2969,44.7031 12.2969,51.2969 M33.2031,-82.2031 C34.1094,-86.2031 38.7031,-96.7031 43.9063,-96.7031 C45.4063,-96.7031 47.7969,-91.9063 47.7969,-84.9063 C47.7969,-74.5 40.1094,-66.7031 33.2031,-59.9063 C32.6094,-63.9063 32.1094,-67.7969 32.1094,-72 C32.1094,-75.7031 32.4063,-79.1094 33.2031,-82.2031 M42,20.5938 C40,21 38.1094,21.2031 36.2031,21.2031 C21.9063,21.2031 9.70313,11.2031 9.70313,-3.90625 C9.70313,-16.0938 18.2969,-27 27.1094,-34.6094 C28.7969,-36.1094 30.4063,-37.5 31.9063,-39 C32.7969,-33.6094 33.5,-28.9063 34.2031,-24.7969 C25.0938,-22.0938 18.9063,-12.5 18.9063,-3.09375 C18.9063,3.90625 24.4063,13.5 32.4063,13.5 C33.2031,13.5 34.1094,13.0938 34.1094,12.2031 C34.1094,11.2969 33.1094,10.7969 31.9063,10 C28,7.59375 25.7969,5 25.7969,0.09375 C25.7969,-6 30.4063,-10.9063 36.2031,-12.2969 L42,20.5938 M56.2031,2.09375 C56.2031,9.20313 53.2969,16.5 46.2031,19.4063 C44.1094,7.40625 41.4063,-8.5 40.7031,-12.9063 C49.7031,-12.9063 56.2031,-6.79688 56.2031,2.09375"/>
</svg>
